<svg width="45" height="37" viewBox="0 0 45 37" fill="none" xmlns="http://www.w3.org/2000/svg">
<path fill-rule="evenodd" clip-rule="evenodd" d="M2.7144 14.4925C3.85506 14.5093 4.75434 16.2403 4.723 18.3587C4.69166 20.477 3.74157 22.1806 2.60091 22.1637C1.46025 22.1469 0.560967 20.4159 0.592306 18.2975C0.623646 16.1792 1.57374 14.4756 2.7144 14.4925ZM42.587 14.9462C43.7277 14.9631 44.627 16.694 44.5956 18.8124C44.5643 20.9307 43.6142 22.6343 42.4735 22.6175C41.3329 22.6006 40.4336 20.8696 40.4649 18.7513C40.4963 16.6329 41.4464 14.9293 42.587 14.9462ZM13.996 18.4636C14.0707 13.4121 12.5461 9.29361 10.5907 9.26468C8.63528 9.23575 6.98952 13.3073 6.91479 18.3588C6.84005 23.4103 8.36465 27.5288 10.3201 27.5578C12.2755 27.5867 13.9212 23.5151 13.996 18.4636ZM34.8674 9.55251C36.8228 9.58144 38.3474 13.6999 38.2727 18.7514C38.1979 23.8029 36.5522 27.8745 34.5967 27.8456C32.6413 27.8167 31.1167 23.6982 31.1915 18.6467C31.2662 13.5952 32.912 9.52358 34.8674 9.55251ZM28.7897 18.6472C28.9368 8.70718 26.2819 0.608145 22.8599 0.557519C19.4379 0.506892 16.5447 8.52385 16.3976 18.4639C16.2506 28.4039 18.9054 36.503 22.3274 36.5536C25.7494 36.6042 28.6426 28.5873 28.7897 18.6472Z" fill="black"/>
</svg>
