<svg width="335" height="33" viewBox="0 0 335 33" fill="none" xmlns="http://www.w3.org/2000/svg">
<path d="M10.5501 26.6998C9.38309 26.6998 8.34509 26.5831 7.43509 26.3498C6.52509 26.1165 5.7201 25.8131 5.0201 25.4398C4.3201 25.0665 3.71309 24.6465 3.20009 24.1798C2.68709 23.6898 2.25509 23.1881 1.90509 22.6748C1.06509 21.5081 0.505098 20.1665 0.225098 18.6498H4.42509C4.61209 19.4898 4.95009 20.2248 5.44009 20.8548C5.86009 21.3915 6.46709 21.8931 7.26009 22.3598C8.07709 22.8031 9.17309 23.0248 10.5501 23.0248C12.4871 23.0248 13.8751 22.6748 14.7151 21.9748C15.5551 21.2748 15.9751 20.3998 15.9751 19.3498C15.9751 18.6965 15.7651 18.1598 15.3451 17.7398C14.9251 17.2965 14.3651 16.9231 13.6651 16.6198C12.9881 16.3165 12.2071 16.0481 11.3201 15.8148C10.4331 15.5815 9.53509 15.3365 8.62509 15.0798C7.71509 14.7998 6.81708 14.4965 5.93008 14.1698C5.04308 13.8198 4.25009 13.3881 3.55009 12.8748C2.87309 12.3381 2.32509 11.6965 1.90509 10.9498C1.48509 10.1798 1.27509 9.24651 1.27509 8.14981C1.27509 7.19311 1.48509 6.2715 1.90509 5.3848C2.32509 4.4981 2.9321 3.71651 3.7251 3.03981C4.5181 2.36311 5.47509 1.82651 6.59509 1.42981C7.71509 1.00981 8.97509 0.799805 10.3751 0.799805C11.4481 0.799805 12.4051 0.904807 13.2451 1.11481C14.0851 1.32481 14.8321 1.60481 15.4851 1.95481C16.1381 2.28151 16.6981 2.66651 17.1651 3.10981C17.6551 3.52981 18.0631 3.9615 18.3901 4.4048C19.1601 5.4548 19.6971 6.6448 20.0001 7.9748H15.8001C15.6371 7.3215 15.3451 6.7381 14.9251 6.2248C14.5521 5.7815 14.0031 5.38481 13.2801 5.03481C12.5801 4.66151 11.6121 4.4748 10.3751 4.4748C8.71809 4.4748 7.48208 4.82481 6.66508 5.52481C5.87208 6.20151 5.4751 7.0181 5.4751 7.9748C5.4751 8.6281 5.68509 9.1765 6.10509 9.6198C6.52509 10.0398 7.07309 10.4131 7.75009 10.7398C8.45009 11.0431 9.2431 11.3231 10.1301 11.5798C11.0171 11.8131 11.9151 12.0698 12.8251 12.3498C13.7351 12.6065 14.6331 12.9098 15.5201 13.2598C16.4071 13.5865 17.1881 14.0181 17.8651 14.5548C18.5651 15.0681 19.1251 15.6981 19.5451 16.4448C19.9651 17.1915 20.1751 18.1015 20.1751 19.1748C20.1751 20.1781 19.9531 21.1348 19.5101 22.0448C19.0901 22.9548 18.4721 23.7598 17.6551 24.4598C16.8381 25.1365 15.8351 25.6731 14.6451 26.0698C13.4551 26.4898 12.0901 26.6998 10.5501 26.6998ZM22.9591 1.49981H26.6341V10.5998H26.8091C27.1351 10.0865 27.5671 9.61981 28.1041 9.19981C28.5701 8.84981 29.1421 8.53481 29.8191 8.25481C30.5191 7.95151 31.3821 7.7998 32.4091 7.7998C34.6021 7.7998 36.3171 8.4415 37.5541 9.7248C38.7901 10.9848 39.4091 12.8515 39.4091 15.3248V25.9998H35.7341V15.6748C35.7341 14.0881 35.3841 12.9331 34.6841 12.2098C33.9841 11.4865 32.9341 11.1248 31.5341 11.1248C30.8341 11.1248 30.1801 11.2531 29.5741 11.5098C28.9901 11.7665 28.4771 12.1281 28.0341 12.5948C27.5901 13.0381 27.2401 13.5865 26.9841 14.2398C26.7501 14.8698 26.6341 15.5815 26.6341 16.3748V25.9998H22.9591V1.49981ZM50.7821 26.3498C49.5221 26.3498 48.3321 26.1165 47.2121 25.6498C46.1161 25.1598 45.1471 24.5065 44.3071 23.6898C43.4911 22.8498 42.8491 21.8698 42.3821 20.7498C41.9161 19.6065 41.6821 18.3815 41.6821 17.0748C41.6821 15.7681 41.9161 14.5548 42.3821 13.4348C42.8491 12.2915 43.4911 11.3115 44.3071 10.4948C45.1471 9.6548 46.1161 9.0015 47.2121 8.53481C48.3321 8.04481 49.5221 7.7998 50.7821 7.7998C52.0421 7.7998 53.2211 8.04481 54.3171 8.53481C55.4371 9.0015 56.4061 9.6548 57.2221 10.4948C58.0621 11.3115 58.7161 12.2915 59.1821 13.4348C59.6491 14.5548 59.8821 15.7681 59.8821 17.0748V18.2998H45.3571C45.4971 19.0465 45.7311 19.7115 46.0571 20.2948C46.3841 20.8781 46.7921 21.3798 47.2821 21.7998C47.7721 22.1965 48.3091 22.4998 48.8921 22.7098C49.4991 22.9198 50.1291 23.0248 50.7821 23.0248C51.6921 23.0248 52.4741 22.9081 53.1271 22.6748C53.7811 22.4181 54.3061 22.1265 54.7021 21.7998C55.1691 21.4498 55.5541 21.0415 55.8571 20.5748H59.7071C59.2641 21.6715 58.6461 22.6398 57.8521 23.4798C57.5021 23.8298 57.1061 24.1798 56.6621 24.5298C56.2191 24.8798 55.7061 25.1948 55.1221 25.4748C54.5391 25.7315 53.8861 25.9415 53.1621 26.1048C52.4391 26.2681 51.6461 26.3498 50.7821 26.3498ZM56.0321 15.3248C55.9391 14.8115 55.7641 14.2981 55.5071 13.7848C55.2511 13.2715 54.9011 12.8281 54.4571 12.4548C54.0141 12.0581 53.4891 11.7431 52.8821 11.5098C52.2761 11.2531 51.5761 11.1248 50.7821 11.1248C50.1761 11.1248 49.5811 11.2181 48.9971 11.4048C48.4371 11.5915 47.9121 11.8715 47.4221 12.2448C46.9561 12.5948 46.5591 13.0381 46.2321 13.5748C45.9061 14.0881 45.6721 14.6715 45.5321 15.3248H56.0321ZM62.3351 1.49981H66.0101V22.6748H70.0351V25.9998H62.3351V1.49981ZM71.7861 1.49981H75.4611V22.6748H79.4861V25.9998H71.7861V1.49981ZM90.6971 1.49981H94.7221V22.1498H107.147V25.9998H90.6971V1.49981ZM108.549 8.14981H112.224V25.9998H108.549V8.14981ZM110.369 5.52481C109.762 5.52481 109.249 5.31481 108.829 4.89481C108.409 4.47481 108.199 3.9615 108.199 3.3548C108.199 2.74811 108.409 2.2348 108.829 1.8148C109.249 1.3715 109.762 1.14981 110.369 1.14981C110.975 1.14981 111.489 1.3715 111.909 1.8148C112.352 2.2348 112.574 2.74811 112.574 3.3548C112.574 3.9615 112.352 4.47481 111.909 4.89481C111.489 5.31481 110.975 5.52481 110.369 5.52481ZM115.71 8.14981H119.385V10.5998H119.56C119.887 10.0865 120.318 9.61981 120.855 9.19981C121.322 8.84981 121.893 8.53481 122.57 8.25481C123.27 7.95151 124.133 7.7998 125.16 7.7998C127.353 7.7998 129.068 8.4415 130.305 9.7248C131.542 10.9848 132.16 12.8515 132.16 15.3248V25.9998H128.485V15.6748C128.485 14.0881 128.135 12.9331 127.435 12.2098C126.735 11.4865 125.685 11.1248 124.285 11.1248C123.585 11.1248 122.932 11.2531 122.325 11.5098C121.742 11.7665 121.228 12.1281 120.785 12.5948C120.342 13.0381 119.992 13.5865 119.735 14.2398C119.502 14.8698 119.385 15.5815 119.385 16.3748V25.9998H115.71V8.14981ZM143.534 26.3498C142.274 26.3498 141.084 26.1165 139.964 25.6498C138.867 25.1598 137.899 24.5065 137.059 23.6898C136.242 22.8498 135.6 21.8698 135.134 20.7498C134.667 19.6065 134.434 18.3815 134.434 17.0748C134.434 15.7681 134.667 14.5548 135.134 13.4348C135.6 12.2915 136.242 11.3115 137.059 10.4948C137.899 9.6548 138.867 9.0015 139.964 8.53481C141.084 8.04481 142.274 7.7998 143.534 7.7998C144.794 7.7998 145.972 8.04481 147.069 8.53481C148.189 9.0015 149.157 9.6548 149.974 10.4948C150.814 11.3115 151.467 12.2915 151.934 13.4348C152.4 14.5548 152.634 15.7681 152.634 17.0748V18.2998H138.109C138.249 19.0465 138.482 19.7115 138.809 20.2948C139.135 20.8781 139.544 21.3798 140.034 21.7998C140.524 22.1965 141.06 22.4998 141.644 22.7098C142.25 22.9198 142.88 23.0248 143.534 23.0248C144.444 23.0248 145.225 22.9081 145.879 22.6748C146.532 22.4181 147.057 22.1265 147.454 21.7998C147.92 21.4498 148.305 21.0415 148.609 20.5748H152.459C152.015 21.6715 151.397 22.6398 150.604 23.4798C150.254 23.8298 149.857 24.1798 149.414 24.5298C148.97 24.8798 148.457 25.1948 147.874 25.4748C147.29 25.7315 146.637 25.9415 145.914 26.1048C145.19 26.2681 144.397 26.3498 143.534 26.3498ZM148.784 15.3248C148.69 14.8115 148.515 14.2981 148.259 13.7848C148.002 13.2715 147.652 12.8281 147.209 12.4548C146.765 12.0581 146.24 11.7431 145.634 11.5098C145.027 11.2531 144.327 11.1248 143.534 11.1248C142.927 11.1248 142.332 11.2181 141.749 11.4048C141.189 11.5915 140.664 11.8715 140.174 12.2448C139.707 12.5948 139.31 13.0381 138.984 13.5748C138.657 14.0881 138.424 14.6715 138.284 15.3248H148.784ZM176.621 26.6998C174.778 26.6998 173.051 26.3848 171.441 25.7548C169.854 25.1015 168.466 24.2031 167.276 23.0598C166.109 21.8931 165.188 20.5281 164.511 18.9648C163.834 17.3781 163.496 15.6398 163.496 13.7498C163.496 11.8598 163.834 10.1331 164.511 8.56981C165.188 6.98311 166.109 5.6181 167.276 4.4748C168.466 3.3081 169.854 2.4098 171.441 1.7798C173.051 1.1265 174.778 0.799805 176.621 0.799805C177.881 0.799805 179.024 0.928107 180.051 1.18481C181.078 1.44151 181.999 1.77981 182.816 2.19981C183.633 2.61981 184.344 3.0981 184.951 3.6348C185.581 4.1715 186.118 4.7198 186.561 5.2798C187.611 6.5865 188.381 8.0681 188.871 9.7248H184.846C184.426 8.7915 183.843 7.95151 183.096 7.20481C182.466 6.57481 181.626 5.99151 180.576 5.45481C179.526 4.91811 178.208 4.64981 176.621 4.64981C175.314 4.64981 174.113 4.8715 173.016 5.3148C171.919 5.7581 170.974 6.3765 170.181 7.1698C169.388 7.9631 168.769 8.91981 168.326 10.0398C167.906 11.1598 167.696 12.3965 167.696 13.7498C167.696 15.1031 167.906 16.3398 168.326 17.4598C168.769 18.5798 169.388 19.5365 170.181 20.3298C170.974 21.1231 171.919 21.7415 173.016 22.1848C174.113 22.6281 175.314 22.8498 176.621 22.8498C178.231 22.8498 179.573 22.5581 180.646 21.9748C181.719 21.3915 182.583 20.7498 183.236 20.0498C184.006 19.2331 184.601 18.2998 185.021 17.2498H189.046C188.463 19.0231 187.611 20.5981 186.491 21.9748C186.024 22.5815 185.476 23.1648 184.846 23.7248C184.216 24.2848 183.493 24.7865 182.676 25.2298C181.883 25.6731 180.973 26.0231 179.946 26.2798C178.943 26.5598 177.834 26.6998 176.621 26.6998ZM199.885 26.3498C198.578 26.3498 197.353 26.1165 196.21 25.6498C195.09 25.1598 194.11 24.5065 193.27 23.6898C192.453 22.8498 191.8 21.8698 191.31 20.7498C190.843 19.6065 190.61 18.3815 190.61 17.0748C190.61 15.7681 190.843 14.5548 191.31 13.4348C191.8 12.2915 192.453 11.3115 193.27 10.4948C194.11 9.6548 195.09 9.0015 196.21 8.53481C197.353 8.04481 198.578 7.7998 199.885 7.7998C201.192 7.7998 202.405 8.04481 203.525 8.53481C204.668 9.0015 205.648 9.6548 206.465 10.4948C207.305 11.3115 207.958 12.2915 208.425 13.4348C208.915 14.5548 209.16 15.7681 209.16 17.0748C209.16 18.3815 208.915 19.6065 208.425 20.7498C207.958 21.8698 207.305 22.8498 206.465 23.6898C205.648 24.5065 204.668 25.1598 203.525 25.6498C202.405 26.1165 201.192 26.3498 199.885 26.3498ZM199.885 23.0248C200.678 23.0248 201.402 22.8848 202.055 22.6048C202.732 22.3248 203.303 21.9281 203.77 21.4148C204.26 20.9015 204.633 20.2831 204.89 19.5598C205.17 18.8131 205.31 17.9848 205.31 17.0748C205.31 16.1648 205.17 15.3481 204.89 14.6248C204.633 13.8781 204.26 13.2481 203.77 12.7348C203.303 12.2215 202.732 11.8248 202.055 11.5448C201.402 11.2648 200.678 11.1248 199.885 11.1248C199.092 11.1248 198.357 11.2648 197.68 11.5448C197.027 11.8248 196.455 12.2215 195.965 12.7348C195.498 13.2481 195.125 13.8781 194.845 14.6248C194.588 15.3481 194.46 16.1648 194.46 17.0748C194.46 17.9848 194.588 18.8131 194.845 19.5598C195.125 20.2831 195.498 20.9015 195.965 21.4148C196.455 21.9281 197.027 22.3248 197.68 22.6048C198.357 22.8848 199.092 23.0248 199.885 23.0248ZM211.604 8.14981H215.279V10.5998H215.454C215.781 10.0865 216.213 9.61981 216.749 9.19981C217.216 8.84981 217.788 8.53481 218.464 8.25481C219.164 7.95151 220.028 7.7998 221.054 7.7998C223.248 7.7998 224.963 8.4415 226.199 9.7248C227.436 10.9848 228.054 12.8515 228.054 15.3248V25.9998H224.379V15.6748C224.379 14.0881 224.029 12.9331 223.329 12.2098C222.629 11.4865 221.579 11.1248 220.179 11.1248C219.479 11.1248 218.826 11.2531 218.219 11.5098C217.636 11.7665 217.123 12.1281 216.679 12.5948C216.236 13.0381 215.886 13.5865 215.629 14.2398C215.396 14.8698 215.279 15.5815 215.279 16.3748V25.9998H211.604V8.14981ZM238.553 26.3498C237.643 26.3498 236.815 26.2681 236.068 26.1048C235.345 25.9415 234.703 25.7198 234.143 25.4398C233.583 25.1598 233.093 24.8448 232.673 24.4948C232.253 24.1215 231.891 23.7481 231.588 23.3748C230.888 22.5115 230.41 21.5198 230.153 20.3998H234.178C234.365 20.8898 234.656 21.3331 235.053 21.7298C235.38 22.0565 235.823 22.3598 236.383 22.6398C236.943 22.8965 237.666 23.0248 238.553 23.0248C239.253 23.0248 239.836 22.9665 240.303 22.8498C240.77 22.7331 241.143 22.5815 241.423 22.3948C241.726 22.1848 241.936 21.9515 242.053 21.6948C242.17 21.4381 242.228 21.1815 242.228 20.9248C242.228 20.4115 241.948 20.0148 241.388 19.7348C240.851 19.4548 240.163 19.2215 239.323 19.0348C238.483 18.8481 237.585 18.6498 236.628 18.4398C235.671 18.2298 234.773 17.9265 233.933 17.5298C233.093 17.1098 232.393 16.5498 231.833 15.8498C231.296 15.1498 231.028 14.2165 231.028 13.0498C231.028 12.3965 231.18 11.7548 231.483 11.1248C231.81 10.4948 232.276 9.9348 232.883 9.44481C233.49 8.95481 234.225 8.55811 235.088 8.25481C235.951 7.95151 236.931 7.7998 238.028 7.7998C239.778 7.7998 241.166 8.0915 242.193 8.6748C243.243 9.2581 244.036 9.8998 244.573 10.5998C245.203 11.4165 245.646 12.3498 245.903 13.3998H242.053C241.89 12.9798 241.633 12.6065 241.283 12.2798C240.98 11.9998 240.56 11.7431 240.023 11.5098C239.51 11.2531 238.845 11.1248 238.028 11.1248C236.908 11.1248 236.103 11.3231 235.613 11.7198C235.123 12.1165 234.878 12.5715 234.878 13.0848C234.878 13.5981 235.146 13.9948 235.683 14.2748C236.243 14.5315 236.943 14.7531 237.783 14.9398C238.623 15.1265 239.521 15.3248 240.478 15.5348C241.435 15.7448 242.333 16.0598 243.173 16.4798C244.013 16.8765 244.701 17.4248 245.238 18.1248C245.798 18.8248 246.078 19.7581 246.078 20.9248C246.078 21.6248 245.915 22.3015 245.588 22.9548C245.261 23.6081 244.783 24.1915 244.153 24.7048C243.523 25.1948 242.73 25.5915 241.773 25.8948C240.84 26.1981 239.766 26.3498 238.553 26.3498ZM255.52 26.3498C253.327 26.3498 251.612 25.7198 250.375 24.4598C249.138 23.1765 248.52 21.2981 248.52 18.8248V8.14981H252.195V18.4748C252.195 20.0615 252.545 21.2165 253.245 21.9398C253.945 22.6631 254.995 23.0248 256.395 23.0248C257.095 23.0248 257.737 22.8965 258.32 22.6398C258.927 22.3831 259.452 22.0331 259.895 21.5898C260.338 21.1231 260.677 20.5748 260.91 19.9448C261.167 19.2915 261.295 18.5681 261.295 17.7748V8.14981H264.97V25.9998H261.295V23.5498H261.12C260.793 24.0631 260.362 24.5298 259.825 24.9498C259.358 25.2998 258.775 25.6265 258.075 25.9298C257.375 26.2098 256.523 26.3498 255.52 26.3498ZM268.464 1.49981H272.139V22.6748H276.164V25.9998H268.464V1.49981ZM278.616 11.4748H276.516V8.14981H278.616V4.2998H282.291V8.14981H287.716V11.4748H282.291V22.6748H287.891V25.9998H278.616V11.4748ZM290.341 8.14981H294.016V25.9998H290.341V8.14981ZM292.161 5.52481C291.554 5.52481 291.041 5.31481 290.621 4.89481C290.201 4.47481 289.991 3.9615 289.991 3.3548C289.991 2.74811 290.201 2.2348 290.621 1.8148C291.041 1.3715 291.554 1.14981 292.161 1.14981C292.767 1.14981 293.281 1.3715 293.701 1.8148C294.144 2.2348 294.366 2.74811 294.366 3.3548C294.366 3.9615 294.144 4.47481 293.701 4.89481C293.281 5.31481 292.767 5.52481 292.161 5.52481ZM297.502 8.14981H301.177V10.5998H301.352C301.679 10.0865 302.11 9.61981 302.647 9.19981C303.114 8.84981 303.685 8.53481 304.362 8.25481C305.062 7.95151 305.925 7.7998 306.952 7.7998C309.145 7.7998 310.86 8.4415 312.097 9.7248C313.334 10.9848 313.952 12.8515 313.952 15.3248V25.9998H310.277V15.6748C310.277 14.0881 309.927 12.9331 309.227 12.2098C308.527 11.4865 307.477 11.1248 306.077 11.1248C305.377 11.1248 304.724 11.2531 304.117 11.5098C303.534 11.7665 303.02 12.1281 302.577 12.5948C302.134 13.0381 301.784 13.5865 301.527 14.2398C301.294 14.8698 301.177 15.5815 301.177 16.3748V25.9998H297.502V8.14981ZM318.851 29.3248H330.401V23.7248H330.226C329.829 24.2148 329.351 24.6581 328.791 25.0548C328.324 25.3815 327.741 25.6848 327.041 25.9648C326.341 26.2215 325.536 26.3498 324.626 26.3498C323.436 26.3498 322.327 26.1281 321.301 25.6848C320.297 25.2415 319.411 24.6231 318.641 23.8298C317.894 23.0131 317.299 22.0331 316.856 20.8898C316.436 19.7465 316.226 18.4748 316.226 17.0748C316.226 15.6748 316.436 14.4031 316.856 13.2598C317.299 12.1165 317.894 11.1481 318.641 10.3548C319.411 9.53811 320.297 8.90811 321.301 8.46481C322.327 8.02151 323.436 7.7998 324.626 7.7998C325.536 7.7998 326.341 7.93981 327.041 8.21981C327.741 8.49981 328.324 8.80311 328.791 9.12981C329.351 9.52651 329.829 9.9698 330.226 10.4598H330.401V8.14981H334.076V32.6498H318.851V29.3248ZM325.326 23.0248C326.819 23.0248 328.032 22.5231 328.966 21.5198C329.922 20.4931 330.401 19.0115 330.401 17.0748C330.401 15.1381 329.922 13.6681 328.966 12.6648C328.032 11.6381 326.819 11.1248 325.326 11.1248C323.739 11.1248 322.467 11.6381 321.511 12.6648C320.554 13.6681 320.076 15.1381 320.076 17.0748C320.076 19.0115 320.554 20.4931 321.511 21.5198C322.467 22.5231 323.739 23.0248 325.326 23.0248Z" fill="black"/>
</svg>
