<svg width="53" height="62" viewBox="0 0 53 62" fill="none" xmlns="http://www.w3.org/2000/svg">
<path d="M26.5296 35.9133C13.1492 35.9133 2.26287 46.8003 2.26287 60.1828C2.26287 60.7509 2.72328 61.212 3.29209 61.212H49.7672C50.3353 61.212 50.7964 60.7509 50.7964 60.1828C50.7964 46.8003 39.9107 35.9133 26.5296 35.9133ZM4.34463 59.1536C4.88393 47.3822 14.6285 37.9718 26.5296 37.9718C38.4307 37.9718 48.176 47.3822 48.7146 59.1536H4.34463Z" fill="white"/>
<path d="M26.1255 5.47876C18.4215 5.47876 12.1536 11.7467 12.1536 19.4506C12.1536 27.1546 18.4215 33.4225 26.1255 33.4225C33.8302 33.4225 40.0974 27.1546 40.0974 19.4506C40.0974 11.7467 33.8295 5.47876 26.1255 5.47876ZM26.1255 31.3641C19.5564 31.3641 14.212 26.0198 14.212 19.4506C14.212 12.8815 19.5564 7.53718 26.1255 7.53718C32.6946 7.53718 38.039 12.8815 38.039 19.4506C38.039 26.0198 32.6946 31.3641 26.1255 31.3641Z" fill="white"/>
<path d="M9.15175 27.0991C9.72056 27.0991 10.181 26.6387 10.181 26.0699V12.7506C10.181 12.6847 10.1734 12.6209 10.1617 12.5584C12.9193 6.16429 19.1186 2.05774 26.1262 2.05774C33.2593 2.05774 39.5622 6.31318 42.2409 12.9097V25.9924C41.3777 28.1181 40.1241 30.0296 38.5014 31.6736C38.1021 32.0785 38.1062 32.7296 38.511 33.1289C38.7114 33.3272 38.9728 33.426 39.2342 33.426C39.4998 33.426 39.7653 33.3238 39.9663 33.12C41.6954 31.3683 43.0505 29.3435 44.0098 27.0998H44.733C48.9726 27.0998 52.4218 23.6506 52.4218 19.4109C52.4218 15.1713 48.9726 11.722 44.733 11.722H43.9658C40.8762 4.58411 33.9509 0 26.1262 0C18.2973 0 11.3714 4.58342 8.28309 11.722H7.6889C3.44923 11.722 0 15.1713 0 19.4109C0 23.6506 3.44923 27.0998 7.6889 27.0998H9.15175V27.0991ZM50.3634 19.4102C50.3634 22.515 47.8371 25.0407 44.733 25.0407H44.2993V13.7798H44.733C47.8377 13.7798 50.3634 16.3055 50.3634 19.4102ZM2.05842 19.4102C2.05842 16.3055 4.58411 13.7798 7.6889 13.7798H8.12254V25.0407H7.6889C4.58411 25.0407 2.05842 22.515 2.05842 19.4102Z" fill="white"/>
</svg>
