<svg width="50" height="64" viewBox="0 0 50 64" fill="none" xmlns="http://www.w3.org/2000/svg">
<path d="M49.3378 10.4583C49.3355 10.4196 49.3317 10.3816 49.3264 10.3437C49.3203 10.3065 49.3135 10.2701 49.3044 10.2344C49.2953 10.1987 49.2847 10.163 49.2718 10.1289C49.2589 10.0939 49.2452 10.0598 49.2285 10.0264C49.2125 9.99373 49.1958 9.96261 49.1769 9.93224C49.1579 9.90036 49.1374 9.86999 49.1154 9.84039C49.0934 9.81154 49.0706 9.78345 49.0463 9.75688C49.022 9.73031 48.997 9.7045 48.9704 9.68021C48.9431 9.65516 48.915 9.63162 48.8846 9.60961C48.8557 9.58835 48.8269 9.56786 48.7958 9.54964C48.7639 9.5299 48.7313 9.51244 48.6979 9.4965C48.6645 9.48056 48.631 9.46613 48.5961 9.45323C48.5612 9.44032 48.5263 9.42969 48.4898 9.42058C48.4526 9.41071 48.4147 9.40312 48.376 9.39705C48.3562 9.39401 48.338 9.38718 48.3183 9.38566C39.2724 8.48077 32.198 6.64138 24.8906 0.27982C24.4161 -0.133151 23.6957 -0.0830476 23.2842 0.390654C23.2577 0.421019 23.2379 0.45518 23.2152 0.487823C15.8667 6.82813 9.72985 8.51569 1.02559 9.3849C0.443336 9.44336 0 9.933 0 10.5183V37.1875C0 37.2885 0.0136641 37.3887 0.0402339 37.4859C4.65806 54.5163 23.282 62.6072 24.0722 62.9435C24.2149 63.0042 24.3668 63.0346 24.5178 63.0346C24.6674 63.0346 24.8185 63.005 24.9589 62.9458C25.759 62.6102 44.5962 54.5201 49.2141 37.4866C49.23 37.4267 49.2422 37.3659 49.2482 37.3037L49.3378 36.4223C49.3416 36.3844 49.3439 36.3456 49.3439 36.3069V10.5191C49.3439 10.497 49.3393 10.4781 49.3378 10.4583ZM46.9921 36.9772C43.0066 51.476 27.3669 59.3224 24.5201 60.6441C21.6984 59.3186 6.28565 51.4897 2.27665 37.0327V11.5424C10.5277 10.6291 16.9272 8.73812 24.18 2.64984C31.3675 8.61134 38.5975 10.601 47.0657 11.5386V36.2477L46.9921 36.9772Z" fill="black"/>
<path d="M35.2999 24.5615H34.2067C33.6055 19.5185 29.2731 15.5923 24.0274 15.5923C18.7818 15.5923 14.4494 19.5185 13.8489 24.5615H12.5265C11.898 24.5615 11.3878 25.0709 11.3878 25.7002V42.4012C11.3878 43.0305 11.898 43.5399 12.5265 43.5399H35.3006C35.9292 43.5399 36.4393 43.0305 36.4393 42.4012V25.7002C36.4386 25.0709 35.9284 24.5615 35.2999 24.5615ZM24.0267 17.8697C28.0137 17.8697 31.3174 20.7787 31.9042 24.5615H16.1491C16.7367 20.7787 20.0397 17.8697 24.0267 17.8697ZM34.1612 26.8389V41.2625H13.6645V26.8389H34.1612Z" fill="black"/>
</svg>
