<svg width="68" height="65" viewBox="0 0 68 65" fill="none" xmlns="http://www.w3.org/2000/svg">
<path d="M54.333 15.2495C52.4502 15.2496 50.5874 15.6365 48.8594 16.3863C48.384 11.8627 46.2459 7.67859 42.8618 4.64941C39.4776 1.62024 35.0899 -0.0370118 30.5536 0.000627345C20.4439 0.000627345 12.1756 8.08846 12.1756 18.0299C12.1755 19.1478 12.2819 20.2631 12.4934 21.3606C11.0578 21.0646 9.57598 21.0762 8.14517 21.3946C6.71436 21.7131 5.36685 22.3312 4.19101 23.2085C3.01518 24.0858 2.03758 25.2024 1.32233 26.4851C0.607077 27.7678 0.170331 29.1876 0.0407331 30.6515C-0.0888645 32.1153 0.0916139 33.5901 0.570332 34.979C1.04905 36.368 1.81519 37.6398 2.81852 38.7111C3.82184 39.7824 5.03968 40.6288 6.39217 41.1951C7.74466 41.7613 9.20123 42.0344 10.6664 41.9965H11.0274C11.3147 41.9965 11.5902 41.8821 11.7934 41.6784C11.9965 41.4747 12.1106 41.1985 12.1106 40.9104C12.1106 40.6224 11.9965 40.3461 11.7934 40.1424C11.5902 39.9388 11.3147 39.8243 11.0274 39.8243H10.6664C9.5672 39.857 8.47265 39.6682 7.44758 39.269C6.42251 38.8697 5.48778 38.2683 4.69875 37.5003C3.90973 36.7322 3.28247 35.8132 2.85412 34.7977C2.42578 33.7821 2.20507 32.6907 2.20507 31.5881C2.20507 30.4854 2.42578 29.394 2.85412 28.3785C3.28247 27.3629 3.90973 26.4439 4.69875 25.6759C5.48778 24.9078 6.42251 24.3064 7.44758 23.9072C8.47265 23.508 9.5672 23.3191 10.6664 23.3518C11.6717 23.354 12.6689 23.5329 13.6126 23.8804C13.8021 23.95 14.0072 23.9653 14.2048 23.9243C14.4025 23.8834 14.5847 23.7879 14.7311 23.6486C14.8775 23.5094 14.9822 23.3319 15.0334 23.1361C15.0846 22.9404 15.0802 22.7342 15.0208 22.5408C14.5734 21.0766 14.3446 19.5541 14.342 18.0227C14.342 9.27593 21.6137 2.16559 30.5536 2.16559C39.4935 2.16559 46.7652 9.28317 46.7652 17.9937C46.7652 17.9937 46.7652 18.0951 46.7652 18.124C46.7649 18.3163 46.8154 18.5052 46.9117 18.6714C47.008 18.8377 47.1465 18.9753 47.3132 19.0703C47.4799 19.1653 47.6688 19.2142 47.8605 19.212C48.0522 19.2099 48.2399 19.1568 48.4044 19.0581C50.2006 17.9881 52.251 17.4228 54.3403 17.4217C55.8225 17.3682 57.3004 17.6114 58.6878 18.1371C60.0752 18.6627 61.3443 19.4603 62.4208 20.4832C63.4974 21.5062 64.3599 22.7339 64.9579 24.0948C65.556 25.4557 65.8776 26.9225 65.904 28.4094C65.9303 29.8963 65.661 31.3736 65.1116 32.7549C64.5622 34.1363 63.7439 35.3941 62.7043 36.4548C61.6647 37.5154 60.4248 38.3578 59.0569 38.9326C57.689 39.5074 56.2206 39.8032 54.7374 39.8026H54.5641H50.3253C50.038 39.8026 49.7625 39.917 49.5594 40.1207C49.3562 40.3244 49.2421 40.6007 49.2421 40.8887C49.2421 41.1768 49.3562 41.453 49.5594 41.6567C49.7625 41.8604 50.038 41.9748 50.3253 41.9748H54.7663C54.8503 41.9849 54.9351 41.9849 55.0191 41.9748C58.5516 41.8836 61.9034 40.389 64.3369 37.8199C66.7705 35.2508 68.0866 31.8175 67.9956 28.2755C67.9046 24.7334 66.4141 21.3726 63.8518 18.9325C61.2896 16.4924 57.8656 15.1728 54.333 15.264V15.2495Z" fill="white"/>
<path d="M52.1314 54.4375L45.1388 61.2864V29.0883C45.1388 28.7996 45.0218 28.5228 44.8134 28.3187C44.605 28.1147 44.3224 28 44.0277 28C43.733 28 43.4504 28.1147 43.242 28.3187C43.0337 28.5228 42.9166 28.7996 42.9166 29.0883V61.2864L35.924 54.4375C35.8223 54.3306 35.6996 54.2449 35.5633 54.1854C35.427 54.1259 35.2799 54.0939 35.1307 54.0913C34.9815 54.0888 34.8333 54.1156 34.695 54.1704C34.5566 54.2251 34.4309 54.3066 34.3254 54.4099C34.2199 54.5133 34.1367 54.6364 34.0809 54.7719C34.025 54.9074 33.9975 55.0525 34.0002 55.1986C34.0028 55.3448 34.0355 55.4889 34.0962 55.6224C34.1569 55.7558 34.2445 55.876 34.3536 55.9756L43.2425 64.6817C43.4509 64.8855 43.7333 65 44.0277 65C44.3222 65 44.6046 64.8855 44.8129 64.6817L53.7018 55.9756C53.8981 55.7693 54.0049 55.4965 53.9998 55.2145C53.9947 54.9326 53.8781 54.6636 53.6746 54.4642C53.471 54.2648 53.1963 54.1506 52.9085 54.1456C52.6206 54.1407 52.3421 54.2453 52.1314 54.4375Z" fill="white"/>
<path d="M34.701 37.0244L25.7874 28.3183C25.5785 28.1145 25.2953 28 25 28C24.7047 28 24.4215 28.1145 24.2126 28.3183L15.299 37.0244C15.1022 37.2307 14.9951 37.5035 15.0002 37.7855C15.0053 38.0674 15.1222 38.3364 15.3263 38.5358C15.5305 38.7352 15.8059 38.8494 16.0945 38.8544C16.3832 38.8593 16.6626 38.7547 16.8738 38.5625L23.8858 31.7136V63.9117C23.8858 64.2004 24.0032 64.4772 24.2121 64.6813C24.4211 64.8853 24.7045 65 25 65C25.2955 65 25.5789 64.8853 25.7879 64.6813C25.9968 64.4772 26.1142 64.2004 26.1142 63.9117V31.7136L33.1262 38.5625C33.3374 38.7547 33.6168 38.8593 33.9055 38.8544C34.1941 38.8494 34.4695 38.7352 34.6737 38.5358C34.8778 38.3364 34.9947 38.0674 34.9998 37.7855C35.0049 37.5035 34.8978 37.2307 34.701 37.0244Z" fill="white"/>
</svg>
