<svg width="68" height="61" viewBox="0 0 68 61" fill="none" xmlns="http://www.w3.org/2000/svg">
<path d="M66.6923 42.0986H60.1538V15.0352C60.1538 14.6934 60.0161 14.3656 59.7708 14.1239C59.5256 13.8823 59.193 13.7465 58.8462 13.7465H48.8205V1.28873C48.8205 0.946939 48.6827 0.619145 48.4375 0.377461C48.1923 0.135777 47.8596 0 47.5128 0H20.4872C20.1404 0 19.8077 0.135777 19.5625 0.377461C19.3173 0.619145 19.1795 0.946939 19.1795 1.28873V13.7465H9.15385C8.80702 13.7465 8.47441 13.8823 8.22917 14.1239C7.98393 14.3656 7.84615 14.6934 7.84615 15.0352V42.0986H1.30769C0.960871 42.0986 0.628254 42.2344 0.383014 42.4761C0.137774 42.7177 0 43.0455 0 43.3873V59.7113C0 60.0531 0.137774 60.3809 0.383014 60.6225C0.628254 60.8642 0.960871 61 1.30769 61H17.8718C18.2186 61 18.5512 60.8642 18.7965 60.6225C19.0417 60.3809 19.1795 60.0531 19.1795 59.7113V43.3873C19.1795 43.0455 19.0417 42.7177 18.7965 42.4761C18.5512 42.2344 18.2186 42.0986 17.8718 42.0986H10.4615V16.3239H19.1795V27.9225C19.1795 28.2643 19.3173 28.5921 19.5625 28.8338C19.8077 29.0755 20.1404 29.2113 20.4872 29.2113H33.1282V42.0986H25.7179C25.3711 42.0986 25.0385 42.2344 24.7933 42.4761C24.548 42.7177 24.4103 43.0455 24.4103 43.3873V59.7113C24.4103 60.0531 24.548 60.3809 24.7933 60.6225C25.0385 60.8642 25.3711 61 25.7179 61H42.2821C42.6289 61 42.9615 60.8642 43.2067 60.6225C43.452 60.3809 43.5897 60.0531 43.5897 59.7113V43.3873C43.5897 43.0455 43.452 42.7177 43.2067 42.4761C42.9615 42.2344 42.6289 42.0986 42.2821 42.0986H35.7436V29.2113H47.5128C47.8596 29.2113 48.1923 29.0755 48.4375 28.8338C48.6827 28.5921 48.8205 28.2643 48.8205 27.9225V16.3239H57.5385V42.0986H50.1282C49.7814 42.0986 49.4488 42.2344 49.2035 42.4761C48.9583 42.7177 48.8205 43.0455 48.8205 43.3873V59.7113C48.8205 60.0531 48.9583 60.3809 49.2035 60.6225C49.4488 60.8642 49.7814 61 50.1282 61H66.6923C67.0391 61 67.3717 60.8642 67.617 60.6225C67.8622 60.3809 68 60.0531 68 59.7113V43.3873C68 43.0455 67.8622 42.7177 67.617 42.4761C67.3717 42.2344 67.0391 42.0986 66.6923 42.0986ZM16.5641 58.4225H2.61538V44.6761H16.5641V58.4225ZM40.9744 58.4225H27.0256V44.6761H40.9744V58.4225ZM46.2051 26.6338H21.7949V2.57746H46.2051V26.6338ZM65.3846 58.4225H51.4359V44.6761H65.3846V58.4225Z" fill="black"/>
</svg>
