<svg width="70" height="63" viewBox="0 0 70 63" fill="none" xmlns="http://www.w3.org/2000/svg">
<path d="M2.62223 52.5V52.6H2.72223H26.7847C27.1063 52.6 27.4147 52.7277 27.6421 52.9551C27.8695 53.1825 27.9972 53.4909 27.9972 53.8125C27.9972 54.1341 27.8695 54.4425 27.6421 54.6699C27.4147 54.8973 27.1063 55.025 26.7847 55.025H1.40973C1.08815 55.025 0.77975 54.8973 0.552362 54.6699C0.324974 54.4425 0.197229 54.1341 0.197229 53.8125V1.3125C0.197229 0.990925 0.324974 0.682522 0.552362 0.455134C0.77975 0.227746 1.08815 0.1 1.40973 0.1H60.9097C61.2313 0.1 61.5397 0.227746 61.7671 0.455133C61.9945 0.682521 62.1222 0.990925 62.1222 1.3125V19.6875C62.1222 20.0091 61.9945 20.3175 61.7671 20.5449C61.5397 20.7723 61.2313 20.9 60.9097 20.9C60.5882 20.9 60.2797 20.7723 60.0524 20.5449C59.825 20.3175 59.6972 20.0091 59.6972 19.6875V14.875V14.775H59.5972H2.72223H2.62223V14.875V52.5ZM59.6972 2.625V2.525H59.5972H2.72223H2.62223V2.625V12.25V12.35H2.72223H59.5972H59.6972V12.25V2.625Z" fill="white" stroke="#4C77FF" stroke-width="0.2"/>
<path d="M11.9097 8.65H7.53473C7.21315 8.65 6.90475 8.52225 6.67736 8.29487C6.44997 8.06748 6.32223 7.75907 6.32223 7.4375C6.32223 7.11593 6.44997 6.80752 6.67736 6.58013C6.90475 6.35275 7.21315 6.225 7.53473 6.225H11.9097C12.2313 6.225 12.5397 6.35275 12.7671 6.58013C12.9945 6.80752 13.1222 7.11593 13.1222 7.4375C13.1222 7.75907 12.9945 8.06748 12.7671 8.29487C12.5397 8.52225 12.2313 8.65 11.9097 8.65Z" fill="white" stroke="#4C77FF" stroke-width="0.2"/>
<path d="M21.5347 8.65H17.1597C16.8382 8.65 16.5298 8.52225 16.3024 8.29487C16.075 8.06748 15.9472 7.75907 15.9472 7.4375C15.9472 7.11593 16.075 6.80752 16.3024 6.58013C16.5298 6.35275 16.8382 6.225 17.1597 6.225H21.5347C21.8563 6.225 22.1647 6.35275 22.3921 6.58013C22.6195 6.80752 22.7472 7.11592 22.7472 7.4375C22.7472 7.75908 22.6195 8.06748 22.3921 8.29487C22.1647 8.52225 21.8563 8.65 21.5347 8.65Z" fill="white" stroke="#4C77FF" stroke-width="0.2"/>
<path d="M48.2222 33.25C46.4916 33.25 44.7999 33.7632 43.361 34.7246C41.9221 35.6861 40.8006 37.0527 40.1383 38.6515C39.476 40.2504 39.3027 42.0097 39.6404 43.707C39.978 45.4044 40.8113 46.9635 42.035 48.1872C43.2588 49.4109 44.8179 50.2443 46.5152 50.5819C48.2125 50.9195 49.9719 50.7462 51.5707 50.0839C53.1696 49.4217 54.5361 48.3002 55.4976 46.8612C56.4591 45.4223 56.9722 43.7306 56.9722 42C56.9722 39.6794 56.0504 37.4538 54.4094 35.8128C52.7685 34.1719 50.5429 33.25 48.2222 33.25ZM48.2222 48.125C47.0108 48.125 45.8266 47.7658 44.8194 47.0928C43.8121 46.4197 43.0271 45.4631 42.5635 44.3439C42.0999 43.2247 41.9786 41.9932 42.2149 40.8051C42.4513 39.6169 43.0346 38.5256 43.8912 37.669C44.7478 36.8124 45.8392 36.229 47.0273 35.9927C48.2154 35.7564 49.447 35.8777 50.5662 36.3412C51.6854 36.8048 52.642 37.5899 53.315 38.5971C53.988 39.6044 54.3472 40.7886 54.3472 42C54.3472 43.6245 53.7019 45.1824 52.5533 46.331C51.4046 47.4797 49.8467 48.125 48.2222 48.125Z" fill="white"/>
<mask id="path-5-inside-1_13_266" fill="white">
<path d="M68.1023 37.3188L63.0973 36.5575C62.8417 35.773 62.5258 35.0094 62.1523 34.2737L65.1623 30.1875C65.3602 29.931 65.4563 29.6104 65.4321 29.2873C65.4079 28.9643 65.265 28.6616 65.031 28.4375L60.866 24.2725C60.6419 24.0385 60.3392 23.8956 60.0162 23.8714C59.6931 23.8472 59.3725 23.9433 59.116 24.1413L55.0473 27.1425C54.3156 26.788 53.558 26.4896 52.781 26.25L52.0285 21.2625C51.9863 20.9485 51.8319 20.6604 51.5939 20.4514C51.3559 20.2423 51.0503 20.1264 50.7335 20.125H44.836C44.5218 20.1258 44.2184 20.2393 43.9807 20.4448C43.7431 20.6503 43.5871 20.9342 43.541 21.245L42.7885 26.25C41.9979 26.5078 41.2285 26.8267 40.4873 27.2038L36.4185 24.2025C36.162 24.0045 35.8414 23.9084 35.5183 23.9326C35.1953 23.9569 34.8926 24.0997 34.6685 24.3338L30.5035 28.4987C30.2695 28.7228 30.1266 29.0255 30.1024 29.3486C30.0782 29.6717 30.1743 29.9923 30.3723 30.2487L33.3823 34.335C33.0236 35.0519 32.7194 35.7949 32.4723 36.5575L27.4498 37.3188C27.1422 37.3686 26.8624 37.5263 26.6604 37.7635C26.4584 38.0008 26.3474 38.3022 26.3473 38.6138V44.5113C26.3481 44.8254 26.4615 45.1289 26.667 45.3665C26.8725 45.6041 27.1565 45.7602 27.4673 45.8062L32.516 46.5675C32.7705 47.3369 33.0835 48.0858 33.4523 48.8075L30.416 52.92C30.218 53.1765 30.1219 53.4971 30.1462 53.8202C30.1704 54.1432 30.3133 54.4459 30.5473 54.67L34.7123 58.835C34.9363 59.069 35.239 59.2119 35.5621 59.2361C35.8852 59.2603 36.2058 59.1642 36.4623 58.9662L40.5923 55.9213C41.309 56.2829 42.0519 56.59 42.8148 56.84L43.5848 61.915C43.6369 62.2121 43.7898 62.4822 44.0176 62.6798C44.2455 62.8774 44.5345 62.9905 44.836 63H50.7335C51.0477 62.9992 51.3511 62.8857 51.5888 62.6802C51.8264 62.4747 51.9824 62.1908 52.0285 61.88L52.7985 56.805C53.5614 56.555 54.3043 56.2478 55.021 55.8863L59.151 58.9312C59.4075 59.1292 59.7281 59.2253 60.0512 59.2011C60.3742 59.1769 60.6769 59.034 60.901 58.8L65.066 54.635C65.3 54.4109 65.4429 54.1082 65.4671 53.7852C65.4913 53.4621 65.3952 53.1415 65.1973 52.885L62.161 48.7725C62.5281 48.0621 62.8411 47.325 63.0973 46.5675L68.146 45.8062C68.4488 45.7508 68.7224 45.5908 68.9192 45.3541C69.1159 45.1174 69.2232 44.819 69.2223 44.5113V38.6138C69.2215 38.2996 69.108 37.9961 68.9025 37.7585C68.697 37.5209 68.413 37.3648 68.1023 37.3188ZM66.5973 43.3825L61.846 44.1C61.5948 44.1386 61.3603 44.2492 61.1708 44.4185C60.9813 44.5878 60.845 44.8085 60.7785 45.0537C60.4737 46.1778 60.0236 47.2573 59.4398 48.265C59.3119 48.4859 59.2513 48.7394 59.2653 48.9942C59.2793 49.2491 59.3673 49.4944 59.5185 49.7L62.3798 53.5763L59.8073 56.1488L55.9135 53.2787C55.7079 53.1275 55.4626 53.0395 55.2077 53.0255C54.9529 53.0115 54.6995 53.0722 54.4785 53.2C53.4756 53.7768 52.4021 54.221 51.2848 54.5212C51.0395 54.5878 50.8188 54.724 50.6495 54.9135C50.4802 55.103 50.3696 55.3376 50.331 55.5887L49.6048 60.375H45.9648L45.2385 55.5887C45.1999 55.3376 45.0893 55.103 44.92 54.9135C44.7507 54.724 44.53 54.5878 44.2848 54.5212C43.1675 54.2209 42.0939 53.7767 41.091 53.2C40.8701 53.0722 40.6166 53.0115 40.3618 53.0255C40.1069 53.0395 39.8616 53.1275 39.656 53.2787L35.7623 56.1488L33.1898 53.5763L36.0598 49.7C36.211 49.4944 36.299 49.2491 36.313 48.9942C36.327 48.7394 36.2663 48.4859 36.1385 48.265C35.5547 47.2573 35.1046 46.1778 34.7998 45.0537C34.7332 44.8085 34.597 44.5878 34.4075 44.4185C34.218 44.2492 33.9834 44.1386 33.7323 44.1L28.9723 43.3825V39.7425L33.706 39.025C33.9599 38.9873 34.1971 38.8761 34.3884 38.705C34.5797 38.534 34.7166 38.3106 34.7823 38.0625C35.0838 36.9262 35.5339 35.8347 36.121 34.8163C36.2488 34.5953 36.3095 34.3419 36.2955 34.087C36.2815 33.8321 36.1935 33.5869 36.0423 33.3813L33.2073 29.54L35.7798 26.9675L39.6123 29.7937C39.8179 29.945 40.0631 30.033 40.318 30.047C40.5729 30.061 40.8263 30.0003 41.0473 29.8725C42.0704 29.2781 43.1679 28.822 44.311 28.5163C44.5591 28.4506 44.7825 28.3137 44.9536 28.1224C45.1246 27.9311 45.2359 27.6938 45.2735 27.44L45.9648 22.75H49.6048L50.3135 27.4487C50.3512 27.7026 50.4624 27.9398 50.6335 28.1311C50.8045 28.3224 51.0279 28.4593 51.276 28.525C52.4191 28.8308 53.5166 29.2868 54.5398 29.8813C54.7604 30.0102 55.014 30.0715 55.2691 30.0575C55.5242 30.0435 55.7696 29.9548 55.9748 29.8025L59.8073 26.9763L62.3798 29.5487L59.5448 33.39C59.3935 33.5956 59.3055 33.8409 59.2915 34.0958C59.2775 34.3506 59.3382 34.6041 59.466 34.825C60.0531 35.8435 60.5033 36.935 60.8048 38.0712C60.8704 38.3193 61.0074 38.5427 61.1986 38.7138C61.3899 38.8849 61.6272 38.9961 61.881 39.0338L66.6148 39.7513L66.5973 43.3825Z"/>
</mask>
<path d="M68.1023 37.3188L63.0973 36.5575C62.8417 35.773 62.5258 35.0094 62.1523 34.2737L65.1623 30.1875C65.3602 29.931 65.4563 29.6104 65.4321 29.2873C65.4079 28.9643 65.265 28.6616 65.031 28.4375L60.866 24.2725C60.6419 24.0385 60.3392 23.8956 60.0162 23.8714C59.6931 23.8472 59.3725 23.9433 59.116 24.1413L55.0473 27.1425C54.3156 26.788 53.558 26.4896 52.781 26.25L52.0285 21.2625C51.9863 20.9485 51.8319 20.6604 51.5939 20.4514C51.3559 20.2423 51.0503 20.1264 50.7335 20.125H44.836C44.5218 20.1258 44.2184 20.2393 43.9807 20.4448C43.7431 20.6503 43.5871 20.9342 43.541 21.245L42.7885 26.25C41.9979 26.5078 41.2285 26.8267 40.4873 27.2038L36.4185 24.2025C36.162 24.0045 35.8414 23.9084 35.5183 23.9326C35.1953 23.9569 34.8926 24.0997 34.6685 24.3338L30.5035 28.4987C30.2695 28.7228 30.1266 29.0255 30.1024 29.3486C30.0782 29.6717 30.1743 29.9923 30.3723 30.2487L33.3823 34.335C33.0236 35.0519 32.7194 35.7949 32.4723 36.5575L27.4498 37.3188C27.1422 37.3686 26.8624 37.5263 26.6604 37.7635C26.4584 38.0008 26.3474 38.3022 26.3473 38.6138V44.5113C26.3481 44.8254 26.4615 45.1289 26.667 45.3665C26.8725 45.6041 27.1565 45.7602 27.4673 45.8062L32.516 46.5675C32.7705 47.3369 33.0835 48.0858 33.4523 48.8075L30.416 52.92C30.218 53.1765 30.1219 53.4971 30.1462 53.8202C30.1704 54.1432 30.3133 54.4459 30.5473 54.67L34.7123 58.835C34.9363 59.069 35.239 59.2119 35.5621 59.2361C35.8852 59.2603 36.2058 59.1642 36.4623 58.9662L40.5923 55.9213C41.309 56.2829 42.0519 56.59 42.8148 56.84L43.5848 61.915C43.6369 62.2121 43.7898 62.4822 44.0176 62.6798C44.2455 62.8774 44.5345 62.9905 44.836 63H50.7335C51.0477 62.9992 51.3511 62.8857 51.5888 62.6802C51.8264 62.4747 51.9824 62.1908 52.0285 61.88L52.7985 56.805C53.5614 56.555 54.3043 56.2478 55.021 55.8863L59.151 58.9312C59.4075 59.1292 59.7281 59.2253 60.0512 59.2011C60.3742 59.1769 60.6769 59.034 60.901 58.8L65.066 54.635C65.3 54.4109 65.4429 54.1082 65.4671 53.7852C65.4913 53.4621 65.3952 53.1415 65.1973 52.885L62.161 48.7725C62.5281 48.0621 62.8411 47.325 63.0973 46.5675L68.146 45.8062C68.4488 45.7508 68.7224 45.5908 68.9192 45.3541C69.1159 45.1174 69.2232 44.819 69.2223 44.5113V38.6138C69.2215 38.2996 69.108 37.9961 68.9025 37.7585C68.697 37.5209 68.413 37.3648 68.1023 37.3188ZM66.5973 43.3825L61.846 44.1C61.5948 44.1386 61.3603 44.2492 61.1708 44.4185C60.9813 44.5878 60.845 44.8085 60.7785 45.0537C60.4737 46.1778 60.0236 47.2573 59.4398 48.265C59.3119 48.4859 59.2513 48.7394 59.2653 48.9942C59.2793 49.2491 59.3673 49.4944 59.5185 49.7L62.3798 53.5763L59.8073 56.1488L55.9135 53.2787C55.7079 53.1275 55.4626 53.0395 55.2077 53.0255C54.9529 53.0115 54.6995 53.0722 54.4785 53.2C53.4756 53.7768 52.4021 54.221 51.2848 54.5212C51.0395 54.5878 50.8188 54.724 50.6495 54.9135C50.4802 55.103 50.3696 55.3376 50.331 55.5887L49.6048 60.375H45.9648L45.2385 55.5887C45.1999 55.3376 45.0893 55.103 44.92 54.9135C44.7507 54.724 44.53 54.5878 44.2848 54.5212C43.1675 54.2209 42.0939 53.7767 41.091 53.2C40.8701 53.0722 40.6166 53.0115 40.3618 53.0255C40.1069 53.0395 39.8616 53.1275 39.656 53.2787L35.7623 56.1488L33.1898 53.5763L36.0598 49.7C36.211 49.4944 36.299 49.2491 36.313 48.9942C36.327 48.7394 36.2663 48.4859 36.1385 48.265C35.5547 47.2573 35.1046 46.1778 34.7998 45.0537C34.7332 44.8085 34.597 44.5878 34.4075 44.4185C34.218 44.2492 33.9834 44.1386 33.7323 44.1L28.9723 43.3825V39.7425L33.706 39.025C33.9599 38.9873 34.1971 38.8761 34.3884 38.705C34.5797 38.534 34.7166 38.3106 34.7823 38.0625C35.0838 36.9262 35.5339 35.8347 36.121 34.8163C36.2488 34.5953 36.3095 34.3419 36.2955 34.087C36.2815 33.8321 36.1935 33.5869 36.0423 33.3813L33.2073 29.54L35.7798 26.9675L39.6123 29.7937C39.8179 29.945 40.0631 30.033 40.318 30.047C40.5729 30.061 40.8263 30.0003 41.0473 29.8725C42.0704 29.2781 43.1679 28.822 44.311 28.5163C44.5591 28.4506 44.7825 28.3137 44.9536 28.1224C45.1246 27.9311 45.2359 27.6938 45.2735 27.44L45.9648 22.75H49.6048L50.3135 27.4487C50.3512 27.7026 50.4624 27.9398 50.6335 28.1311C50.8045 28.3224 51.0279 28.4593 51.276 28.525C52.4191 28.8308 53.5166 29.2868 54.5398 29.8813C54.7604 30.0102 55.014 30.0715 55.2691 30.0575C55.5242 30.0435 55.7696 29.9548 55.9748 29.8025L59.8073 26.9763L62.3798 29.5487L59.5448 33.39C59.3935 33.5956 59.3055 33.8409 59.2915 34.0958C59.2775 34.3506 59.3382 34.6041 59.466 34.825C60.0531 35.8435 60.5033 36.935 60.8048 38.0712C60.8704 38.3193 61.0074 38.5427 61.1986 38.7138C61.3899 38.8849 61.6272 38.9961 61.881 39.0338L66.6148 39.7513L66.5973 43.3825Z" fill="white" stroke="#4C77FF" stroke-width="0.4" mask="url(#path-5-inside-1_13_266)"/>
</svg>
