<svg width="63" height="63" viewBox="0 0 63 63" fill="none" xmlns="http://www.w3.org/2000/svg">
<path d="M61.8038 60.5909H58.2152V11.2045C58.2152 10.8851 58.0892 10.5787 57.8648 10.3528C57.6405 10.1269 57.3362 10 57.019 10H45.8544C45.5372 10 45.2329 10.1269 45.0086 10.3528C44.7843 10.5787 44.6582 10.8851 44.6582 11.2045V60.5909H38.2785V29.6742C38.2785 29.3548 38.1525 29.0484 37.9281 28.8225C37.7038 28.5966 37.3995 28.4697 37.0823 28.4697H25.9177C25.6005 28.4697 25.2962 28.5966 25.0719 28.8225C24.8475 29.0484 24.7215 29.3548 24.7215 29.6742V60.5909H18.3418V47.3409C18.3418 47.0214 18.2157 46.7151 17.9914 46.4892C17.7671 46.2633 17.4628 46.1364 17.1456 46.1364H5.98101C5.66376 46.1364 5.3595 46.2633 5.13517 46.4892C4.91084 46.7151 4.78481 47.0214 4.78481 47.3409V60.5909H1.1962C0.87895 60.5909 0.574691 60.7178 0.350359 60.9437C0.126028 61.1696 0 61.476 0 61.7955C0 62.1149 0.126028 62.4213 0.350359 62.6472C0.574691 62.8731 0.87895 63 1.1962 63H61.8038C62.1211 63 62.4253 62.8731 62.6496 62.6472C62.874 62.4213 63 62.1149 63 61.7955C63 61.476 62.874 61.1696 62.6496 60.9437C62.4253 60.7178 62.1211 60.5909 61.8038 60.5909ZM47.0506 12.4091H55.8228V60.5909H47.0506V12.4091ZM27.1139 30.8788H35.8861V60.5909H27.1139V30.8788ZM7.17722 48.5455H15.9494V60.5909H7.17722V48.5455Z" fill="black"/>
<path d="M1.21173 38C1.53328 37.9997 1.84155 37.8718 2.06878 37.6443L35.5744 4.13957V9.29787C35.5744 9.61952 35.7022 9.92799 35.9296 10.1554C36.1571 10.3829 36.4655 10.5106 36.7872 10.5106C37.1089 10.5106 37.4173 10.3829 37.6448 10.1554C37.8722 9.92799 38 9.61952 38 9.29787V1.21277C37.9988 1.06025 37.9686 0.909345 37.9111 0.768085C37.8501 0.619108 37.7601 0.483761 37.6462 0.369936C37.5324 0.256111 37.397 0.166085 37.2481 0.105106C37.1029 0.0399814 36.9463 0.00425835 36.7872 0H28.7019C28.3802 0 28.0717 0.127773 27.8443 0.355211C27.6168 0.582649 27.4891 0.89112 27.4891 1.21277C27.4891 1.53441 27.6168 1.84288 27.8443 2.07032C28.0717 2.29776 28.3802 2.42553 28.7019 2.42553H33.8603L0.354688 35.9302C0.18529 36.0998 0.0699539 36.3158 0.0232459 36.5509C-0.0234621 36.786 0.000553573 37.0297 0.0922596 37.2512C0.183966 37.4727 0.339249 37.662 0.538497 37.7953C0.737745 37.9285 0.97202 37.9998 1.21173 38Z" fill="black"/>
</svg>
