<svg width="50" height="63" viewBox="0 0 50 63" fill="none" xmlns="http://www.w3.org/2000/svg">
<path d="M48.0242 9.65364C47.95 9.62818 47.8722 9.60767 47.7909 9.5999C39.407 8.76122 32.675 6.90497 25.0329 0.25217C24.6043 -0.119787 23.9559 -0.0752372 23.5832 0.352584C23.562 0.376627 23.5556 0.407742 23.5373 0.433199C15.9567 6.98276 9.2565 8.82487 0.926357 9.65718C0.906557 9.6593 0.888879 9.66566 0.869786 9.66849C0.837257 9.67344 0.805436 9.6798 0.774321 9.68758C0.739671 9.69678 0.706436 9.70668 0.6732 9.7187C0.642793 9.73001 0.6138 9.74203 0.584807 9.75618C0.553693 9.77103 0.523286 9.78729 0.494293 9.80568C0.466714 9.82265 0.44055 9.84033 0.415093 9.85942C0.388222 9.87922 0.363472 9.90043 0.338722 9.92235C0.313972 9.94498 0.290636 9.96832 0.268007 9.99378C0.2475 10.0171 0.2277 10.0404 0.208607 10.0652C0.187393 10.0935 0.167593 10.1232 0.149207 10.1536C0.13365 10.179 0.120214 10.2045 0.106779 10.2314C0.0905143 10.2646 0.0763712 10.2978 0.0643497 10.3325C0.0544497 10.3608 0.0452571 10.3891 0.0381857 10.4181C0.0289928 10.4541 0.0212138 10.4902 0.0155567 10.5277C0.0113138 10.5581 0.00777845 10.5885 0.00636416 10.6196C0.00494988 10.6401 0 10.6592 0 10.6797V37.0957C0 37.187 0.0120212 37.2768 0.036064 37.3645C4.63179 54.3112 23.1717 62.3648 23.9587 62.6986C24.0874 62.753 24.2239 62.7806 24.3604 62.7806C24.4954 62.7806 24.6312 62.7537 24.7585 62.7007C25.554 62.3655 44.3075 54.3133 48.9025 37.3645C48.9173 37.3107 48.9272 37.2563 48.9329 37.2004L49.0227 36.3207C49.0262 36.2861 49.0284 36.2507 49.0284 36.2168V10.679C49.0284 10.1196 48.5807 9.66637 48.0242 9.65364ZM46.897 36.9076C42.8896 51.5073 27.0899 59.3672 24.3625 60.6266C21.6591 59.3658 6.08992 51.5392 2.05496 36.9579V11.6004C10.1836 10.7016 16.8887 8.72162 24.3922 2.39694C31.965 8.75486 38.7288 10.6953 46.9734 11.5778V36.1637L46.897 36.9076Z" fill="white"/>
</svg>
