<svg width="41" height="61" viewBox="0 0 41 61" fill="none" xmlns="http://www.w3.org/2000/svg">
<path fill-rule="evenodd" clip-rule="evenodd" d="M33.5129 4.64996C28.7678 0.751692 22.5212 -0.799533 16.3781 0.392806C8.1078 1.99769 1.46555 8.9573 0.22546 17.3176C-0.786046 24.1399 1.6452 30.9532 6.7293 35.5442C9.02004 37.6125 10.402 40.5916 10.6215 43.9337C10.6257 43.9944 10.6376 44.0529 10.6509 44.1107V54.5909C10.6509 55.1679 11.1199 55.6362 11.6994 55.6362H12.7445C13.1702 58.6739 15.4099 61 18.1075 61H22.868C25.5655 61 27.8046 58.6739 28.2303 55.6362H29.2753C29.8541 55.6362 30.3239 55.1679 30.3239 54.5909V43.9435C30.3239 43.9425 30.324 43.9416 30.3242 43.9405L30.3242 43.9405C30.3244 43.9393 30.3246 43.938 30.3246 43.9365C30.3246 40.8271 31.7408 37.8243 34.3133 35.4814C38.5508 31.6222 40.9807 26.133 40.9807 20.4221C40.9814 14.2981 38.2593 8.54893 33.5129 4.64996ZM28.2904 42.8167H26.8494V42.8649H12.7181V42.8167H12.6054C12.1608 39.3288 10.6034 36.2208 8.13646 33.9943C3.57315 29.8731 1.39076 23.7532 2.2995 17.6228C3.41167 10.1245 9.36537 3.88341 16.778 2.44438C22.3059 1.3726 27.9192 2.76355 32.1777 6.26321C36.4391 9.76357 38.8829 14.9246 38.8829 20.4228C38.8843 25.5476 36.7026 30.4745 32.8991 33.9386C30.1925 36.4034 28.5903 39.5226 28.2904 42.8167ZM23.5649 44.9073H28.2275V53.5456H27.2677C27.2656 53.5456 27.2635 53.5449 27.2607 53.5449C27.2593 53.5449 27.2582 53.5451 27.2572 53.5453C27.2561 53.5454 27.2551 53.5456 27.2537 53.5456H13.7218C13.7208 53.5456 13.7198 53.5455 13.7188 53.5453L13.7187 53.5453C13.7175 53.5451 13.7162 53.5449 13.7148 53.5449C13.7134 53.5449 13.7124 53.5451 13.7113 53.5453L13.7113 53.5453C13.7107 53.5454 13.71 53.5455 13.7093 53.5455C13.7089 53.5456 13.7083 53.5456 13.7078 53.5456H12.7487V44.9073H22.7911H23.5649ZM22.868 58.9094H18.1075C16.5431 58.9094 15.2296 57.5129 14.8661 55.6362H26.1087C25.7459 57.5129 24.4324 58.9094 22.868 58.9094Z" fill="white"/>
</svg>
