<svg width="62" height="61" viewBox="0 0 62 61" fill="none" xmlns="http://www.w3.org/2000/svg">
<path d="M20.9115 18.6029L19.5382 26.5755C19.4659 26.9498 19.5016 27.337 19.6409 27.6918C19.7802 28.0467 20.0174 28.3546 20.325 28.5798C20.6275 28.8063 20.9873 28.9437 21.3638 28.9765C21.7403 29.0093 22.1184 28.9362 22.4555 28.7654L29.8788 25.0538L36.9161 28.7209C37.2521 28.902 37.6322 28.9849 38.0131 28.9602C38.3939 28.9355 38.7601 28.8042 39.0699 28.5812C39.3796 28.3582 39.6203 28.0525 39.7645 27.6992C39.9088 27.3458 39.9507 26.959 39.8855 26.583L38.5121 18.64L44.2875 12.9909C44.559 12.7272 44.7512 12.3927 44.8424 12.0254C44.9336 11.658 44.92 11.2725 44.8034 10.9125C44.6867 10.5524 44.4715 10.2322 44.1823 9.98818C43.893 9.74413 43.5411 9.58596 43.1666 9.5316L35.1123 8.35872L31.5194 1.11357C31.3491 0.776142 31.0879 0.493057 30.7652 0.296291C30.4425 0.0995261 30.0712 -0.00307799 29.6933 7.03341e-05C29.3166 -0.00169215 28.9468 0.101566 28.6256 0.298254C28.3043 0.494943 28.0443 0.777277 27.8745 1.11357L24.2742 8.35872L16.2199 9.51676C15.8417 9.56782 15.4856 9.72465 15.1925 9.96921C14.8995 10.2138 14.6815 10.5361 14.5636 10.8991C14.4457 11.2621 14.4327 11.651 14.5261 12.0211C14.6195 12.3911 14.8155 12.7273 15.0916 12.9909L20.9115 18.6029ZM25.165 10.4818C25.3397 10.4526 25.505 10.3821 25.647 10.2763C25.789 10.1704 25.9037 10.0322 25.9816 9.87308L29.6933 2.44976L33.4049 9.87308C33.4849 10.0349 33.6031 10.1749 33.7492 10.281C33.8953 10.387 34.0651 10.4559 34.2437 10.4818L42.4688 11.6695L36.5301 17.4152C36.3994 17.5407 36.3014 17.6963 36.2445 17.8683C36.1876 18.0404 36.1735 18.2237 36.2035 18.4025L37.6065 26.531L30.4133 22.7822C30.256 22.7015 30.0817 22.6593 29.9048 22.6593C29.728 22.6593 29.5537 22.7015 29.3963 22.7822L21.8245 26.583L23.235 18.4173C23.2597 18.2391 23.2409 18.0575 23.1801 17.8882C23.1194 17.7188 23.0185 17.5667 22.8861 17.4449L16.9474 11.6992L25.165 10.4818Z" fill="white"/>
<path d="M60.8712 33.0338C60.4983 32.603 60.0441 32.2502 59.5345 31.9954C59.025 31.7406 58.4701 31.589 57.9018 31.5491C57.3337 31.51 56.7634 31.5859 56.2252 31.7721C55.687 31.9583 55.1918 32.2511 54.7692 32.6329L44.4879 41.8675C44.4611 41.6623 44.4215 41.459 44.3691 41.2588C44.1964 40.6156 43.8867 40.0173 43.4614 39.5048C43.036 38.9923 42.505 38.5778 41.9046 38.2895C39.9968 37.4878 37.3467 37.8589 34.7856 38.2301C33.2878 38.5234 31.7578 38.6182 30.2352 38.5122C29.5575 38.3422 28.9022 38.093 28.2828 37.7698C26.3379 36.9013 23.6729 35.7136 18.7142 36.8048C16.154 37.4661 13.8023 38.7632 11.8773 40.5759V37.8589C11.8773 37.5636 11.76 37.2804 11.5512 37.0716C11.3423 36.8627 11.0591 36.7454 10.7638 36.7454H1.1135C0.818179 36.7454 0.534957 36.8627 0.326136 37.0716C0.117314 37.2804 0 37.5636 0 37.8589V59.3865C0 59.6819 0.117314 59.9651 0.326136 60.1739C0.534957 60.3827 0.818179 60.5 1.1135 60.5H10.7638C11.0591 60.5 11.3423 60.3827 11.5512 60.1739C11.76 59.9651 11.8773 59.6819 11.8773 59.3865V57.8425C13.362 58.1914 20.1023 59.7577 25.0834 59.7577C30.2797 59.7577 36.6341 58.57 40.5461 56.87C47.7542 53.7448 59.6241 40.2567 60.5891 39.1654C61.4252 38.3813 61.9224 37.3019 61.9751 36.1569C62.0278 35.0118 61.6317 33.8914 60.8712 33.0338ZM9.65031 58.273H2.22699V38.9724H9.65031V58.273ZM59.045 37.5546L58.9411 37.6585C58.8149 37.7995 46.5516 51.8444 39.6405 54.836C36.0031 56.4172 30.005 57.5307 25.0834 57.5307C19.8871 57.5307 12.2188 55.6303 12.1445 55.6155C12.0558 55.6047 11.9661 55.6047 11.8773 55.6155V43.7382C12.6864 42.8103 15.5444 39.7964 19.1967 38.9947C23.4428 38.0668 25.5362 38.9947 27.3623 39.8187C28.1502 40.2068 28.9829 40.496 29.8417 40.6798C31.5949 40.8451 33.3627 40.7551 35.09 40.4125C37.2502 40.1156 39.6999 39.7741 41.0286 40.3309C41.3144 40.4951 41.5641 40.7151 41.7631 40.9778C41.962 41.2405 42.1061 41.5406 42.1867 41.8601C42.2945 42.2983 42.2962 42.7559 42.1916 43.1949C42.0871 43.6338 41.8792 44.0415 41.5854 44.384C39.8929 46.6556 29.5968 50.0554 25.3729 49.7214C25.0776 49.6987 24.7853 49.7943 24.5605 49.9872C24.3357 50.18 24.1967 50.4542 24.174 50.7495C24.1514 51.0448 24.247 51.337 24.4398 51.5619C24.6326 51.7867 24.9068 51.9257 25.2021 51.9484C25.4323 51.9484 25.6847 51.9484 25.9445 51.9484C30.5544 51.9484 39.3584 49.2314 42.5801 46.5145L42.6618 46.47L56.2019 34.2957C56.6088 33.9333 57.1425 33.7465 57.6866 33.7761C57.9713 33.7934 58.2496 33.868 58.5047 33.9956C58.7599 34.1232 58.9866 34.301 59.1712 34.5184C59.5525 34.94 59.7528 35.4944 59.7292 36.0623C59.7056 36.6302 59.4599 37.1661 59.045 37.5546Z" fill="white"/>
</svg>
